<?xml version="1.0" encoding="utf-8"?>
<!-- Generator: Adobe Illustrator 19.0.0, SVG Export Plug-In . SVG Version: 6.00 Build 0)  -->
<svg version="1.1" id="Layer_1" xmlns="http://www.w3.org/2000/svg" xmlns:xlink="http://www.w3.org/1999/xlink" x="0px" y="0px"
	 viewBox="0 0 143.7 124.5" style="enable-background:new 0 0 143.7 124.5;" xml:space="preserve">
<style type="text/css">
	.st0{fill:#F49ABF;}
</style>
<g>
	<path class="st0" d="M143.7,38.8c0-21.4-17.4-38.8-38.8-38.8c-14,0-26.2,7.4-33,18.5C65,7.4,52.8,0,38.8,0C17.4,0,0,17.4,0,38.8
		C0,50.5,5.2,60.9,13.3,68l55,55c0.9,0.9,2.2,1.5,3.5,1.5c1.3,0,2.6-0.5,3.5-1.5l55-55C138.5,60.9,143.7,50.5,143.7,38.8L143.7,38.8
		z M143.7,38.8"/>
</g>
</svg>
